<?xml version="1.0" encoding="UTF-8" standalone="no"?><svg xmlns="http://www.w3.org/2000/svg" xmlns:xlink="http://www.w3.org/1999/xlink" contentStyleType="text/css" height="962px" preserveAspectRatio="none" style="width:1504px;height:962px;background:#FFFFFF;" version="1.1" viewBox="0 0 1504 962" width="1504px" zoomAndPan="magnify"><defs/><g><!--MD5=[841a8b3ea05274cc8de2660b854665c7]
class ROLE--><g id="elem_ROLE"><rect codeLine="3" fill="#F1F1F1" height="96.8906" id="ROLE" rx="2.5" ry="2.5" style="stroke:#181818;stroke-width:0.5;" width="70" x="7" y="514"/><ellipse cx="22" cy="530" fill="#EB937F" rx="11" ry="11" style="stroke:#181818;stroke-width:1.0;"/><path d="M20.7969,530.875 L22.25,530.875 L22.25,530.9844 C22.25,531.3906 22.2813,531.5469 22.3594,531.7031 C22.5156,531.9531 22.7969,532.1094 23.0938,532.1094 C23.3438,532.1094 23.6094,531.9688 23.7656,531.75 C23.8906,531.5938 23.9219,531.4375 23.9219,530.9844 L23.9219,529.0625 C23.9219,528.9063 23.9219,528.8594 23.9063,528.7031 C23.8438,528.2344 23.5313,527.9219 23.0781,527.9219 C22.8281,527.9219 22.5625,528.0625 22.3906,528.2813 C22.2813,528.4531 22.25,528.6094 22.25,529.0625 L22.25,529.1875 L20.7969,529.1875 L20.7969,526.7813 L24.7813,526.7813 L24.7813,527.6406 C24.7813,528.0469 24.8125,528.2188 24.8906,528.375 C25.0625,528.625 25.3438,528.7813 25.625,528.7813 C25.8906,528.7813 26.1563,528.6406 26.3281,528.4219 C26.4375,528.25 26.4688,528.1094 26.4688,527.6406 L26.4688,525.0938 L18.8438,525.0938 C18.4063,525.0938 18.2813,525.1094 18.125,525.2031 C17.875,525.3594 17.7188,525.6563 17.7188,525.9375 C17.7188,526.2188 17.8594,526.4688 18.0781,526.6406 C18.2344,526.75 18.4219,526.7813 18.8438,526.7813 L19.0938,526.7813 L19.0938,533.2969 L18.8438,533.2969 C18.4375,533.2969 18.2813,533.3125 18.125,533.4219 C17.875,533.5938 17.7188,533.8594 17.7188,534.1563 C17.7188,534.4219 17.8594,534.6719 18.0781,534.8281 C18.2188,534.9531 18.4531,535 18.8438,535 L26.8438,535 L26.8438,532.4219 C26.8438,531.9844 26.8125,531.8438 26.7344,531.6875 C26.5625,531.4375 26.2813,531.2813 26,531.2813 C25.7344,531.2813 25.4688,531.3906 25.2969,531.6406 C25.1875,531.7969 25.1563,531.9375 25.1563,532.4219 L25.1563,533.2969 L20.7969,533.2969 L20.7969,530.875 Z " fill="#000000"/><text fill="#000000" font-family="sans-serif" font-size="14" lengthAdjust="spacing" textLength="38" x="36" y="534.8467">ROLE</text><line style="stroke:#181818;stroke-width:0.5;" x1="8" x2="76" y1="546" y2="546"/><text fill="#000000" font-family="sans-serif" font-size="14" lengthAdjust="spacing" textLength="30" x="13" y="562.9951">user</text><text fill="#000000" font-family="sans-serif" font-size="14" lengthAdjust="spacing" textLength="39" x="13" y="579.292">artist</text><text fill="#000000" font-family="sans-serif" font-size="14" lengthAdjust="spacing" textLength="44" x="13" y="595.5889">admin</text><line style="stroke:#181818;stroke-width:0.5;" x1="8" x2="76" y1="602.8906" y2="602.8906"/></g><!--MD5=[c319e898ed1ef1c56f7f71282b265861]
class SELLAS--><g id="elem_SELLAS"><rect codeLine="9" fill="#F1F1F1" height="80.5938" id="SELLAS" rx="2.5" ry="2.5" style="stroke:#181818;stroke-width:0.5;" width="88" x="652" y="825.5"/><ellipse cx="668.35" cy="841.5" fill="#EB937F" rx="11" ry="11" style="stroke:#181818;stroke-width:1.0;"/><path d="M667.1469,842.375 L668.6,842.375 L668.6,842.4844 C668.6,842.8906 668.6313,843.0469 668.7094,843.2031 C668.8656,843.4531 669.1469,843.6094 669.4438,843.6094 C669.6938,843.6094 669.9594,843.4688 670.1156,843.25 C670.2406,843.0938 670.2719,842.9375 670.2719,842.4844 L670.2719,840.5625 C670.2719,840.4063 670.2719,840.3594 670.2563,840.2031 C670.1938,839.7344 669.8813,839.4219 669.4281,839.4219 C669.1781,839.4219 668.9125,839.5625 668.7406,839.7813 C668.6313,839.9531 668.6,840.1094 668.6,840.5625 L668.6,840.6875 L667.1469,840.6875 L667.1469,838.2813 L671.1313,838.2813 L671.1313,839.1406 C671.1313,839.5469 671.1625,839.7188 671.2406,839.875 C671.4125,840.125 671.6938,840.2813 671.975,840.2813 C672.2406,840.2813 672.5063,840.1406 672.6781,839.9219 C672.7875,839.75 672.8188,839.6094 672.8188,839.1406 L672.8188,836.5938 L665.1938,836.5938 C664.7563,836.5938 664.6313,836.6094 664.475,836.7031 C664.225,836.8594 664.0688,837.1563 664.0688,837.4375 C664.0688,837.7188 664.2094,837.9688 664.4281,838.1406 C664.5844,838.25 664.7719,838.2813 665.1938,838.2813 L665.4438,838.2813 L665.4438,844.7969 L665.1938,844.7969 C664.7875,844.7969 664.6313,844.8125 664.475,844.9219 C664.225,845.0938 664.0688,845.3594 664.0688,845.6563 C664.0688,845.9219 664.2094,846.1719 664.4281,846.3281 C664.5688,846.4531 664.8031,846.5 665.1938,846.5 L673.1938,846.5 L673.1938,843.9219 C673.1938,843.4844 673.1625,843.3438 673.0844,843.1875 C672.9125,842.9375 672.6313,842.7813 672.35,842.7813 C672.0844,842.7813 671.8188,842.8906 671.6469,843.1406 C671.5375,843.2969 671.5063,843.4375 671.5063,843.9219 L671.5063,844.7969 L667.1469,844.7969 L667.1469,842.375 Z " fill="#000000"/><text fill="#000000" font-family="sans-serif" font-size="14" lengthAdjust="spacing" textLength="53" x="682.65" y="846.3467">SELLAS</text><line style="stroke:#181818;stroke-width:0.5;" x1="653" x2="739" y1="857.5" y2="857.5"/><text fill="#000000" font-family="sans-serif" font-size="14" lengthAdjust="spacing" textLength="76" x="658" y="874.4951">best_offer</text><text fill="#000000" font-family="sans-serif" font-size="14" lengthAdjust="spacing" textLength="62" x="658" y="890.792">buy_now</text><line style="stroke:#181818;stroke-width:0.5;" x1="653" x2="739" y1="898.0938" y2="898.0938"/></g><!--MD5=[e8bcb91f4d35b817834845998ccefecb]
class BIDDING--><g id="elem_BIDDING"><rect codeLine="14" fill="#F1F1F1" height="96.8906" id="BIDDING" rx="2.5" ry="2.5" style="stroke:#181818;stroke-width:0.5;" width="93" x="867.5" y="817.5"/><ellipse cx="882.5" cy="833.5" fill="#EB937F" rx="11" ry="11" style="stroke:#181818;stroke-width:1.0;"/><path d="M881.2969,834.375 L882.75,834.375 L882.75,834.4844 C882.75,834.8906 882.7813,835.0469 882.8594,835.2031 C883.0156,835.4531 883.2969,835.6094 883.5938,835.6094 C883.8438,835.6094 884.1094,835.4688 884.2656,835.25 C884.3906,835.0938 884.4219,834.9375 884.4219,834.4844 L884.4219,832.5625 C884.4219,832.4063 884.4219,832.3594 884.4063,832.2031 C884.3438,831.7344 884.0313,831.4219 883.5781,831.4219 C883.3281,831.4219 883.0625,831.5625 882.8906,831.7813 C882.7813,831.9531 882.75,832.1094 882.75,832.5625 L882.75,832.6875 L881.2969,832.6875 L881.2969,830.2813 L885.2813,830.2813 L885.2813,831.1406 C885.2813,831.5469 885.3125,831.7188 885.3906,831.875 C885.5625,832.125 885.8438,832.2813 886.125,832.2813 C886.3906,832.2813 886.6563,832.1406 886.8281,831.9219 C886.9375,831.75 886.9688,831.6094 886.9688,831.1406 L886.9688,828.5938 L879.3438,828.5938 C878.9063,828.5938 878.7813,828.6094 878.625,828.7031 C878.375,828.8594 878.2188,829.1563 878.2188,829.4375 C878.2188,829.7188 878.3594,829.9688 878.5781,830.1406 C878.7344,830.25 878.9219,830.2813 879.3438,830.2813 L879.5938,830.2813 L879.5938,836.7969 L879.3438,836.7969 C878.9375,836.7969 878.7813,836.8125 878.625,836.9219 C878.375,837.0938 878.2188,837.3594 878.2188,837.6563 C878.2188,837.9219 878.3594,838.1719 878.5781,838.3281 C878.7188,838.4531 878.9531,838.5 879.3438,838.5 L887.3438,838.5 L887.3438,835.9219 C887.3438,835.4844 887.3125,835.3438 887.2344,835.1875 C887.0625,834.9375 886.7813,834.7813 886.5,834.7813 C886.2344,834.7813 885.9688,834.8906 885.7969,835.1406 C885.6875,835.2969 885.6563,835.4375 885.6563,835.9219 L885.6563,836.7969 L881.2969,836.7969 L881.2969,834.375 Z " fill="#000000"/><text fill="#000000" font-family="sans-serif" font-size="14" lengthAdjust="spacing" textLength="61" x="896.5" y="838.3467">BIDDING</text><line style="stroke:#181818;stroke-width:0.5;" x1="868.5" x2="959.5" y1="849.5" y2="849.5"/><text fill="#000000" font-family="sans-serif" font-size="14" lengthAdjust="spacing" textLength="59" x="873.5" y="866.4951">pending</text><text fill="#000000" font-family="sans-serif" font-size="14" lengthAdjust="spacing" textLength="68" x="873.5" y="882.792">accepted</text><text fill="#000000" font-family="sans-serif" font-size="14" lengthAdjust="spacing" textLength="61" x="873.5" y="899.0889">declined</text><line style="stroke:#181818;stroke-width:0.5;" x1="868.5" x2="959.5" y1="906.3906" y2="906.3906"/></g><!--MD5=[364d17b1f7e450548b56850e82e7d78c]
class ORDER--><g id="elem_ORDER"><rect codeLine="20" fill="#F1F1F1" height="162.0781" id="ORDER" rx="2.5" ry="2.5" style="stroke:#181818;stroke-width:0.5;" width="135" x="1064.5" y="785"/><ellipse cx="1102.9" cy="801" fill="#EB937F" rx="11" ry="11" style="stroke:#181818;stroke-width:1.0;"/><path d="M1101.6969,801.875 L1103.15,801.875 L1103.15,801.9844 C1103.15,802.3906 1103.1813,802.5469 1103.2594,802.7031 C1103.4156,802.9531 1103.6969,803.1094 1103.9938,803.1094 C1104.2438,803.1094 1104.5094,802.9688 1104.6656,802.75 C1104.7906,802.5938 1104.8219,802.4375 1104.8219,801.9844 L1104.8219,800.0625 C1104.8219,799.9063 1104.8219,799.8594 1104.8063,799.7031 C1104.7438,799.2344 1104.4313,798.9219 1103.9781,798.9219 C1103.7281,798.9219 1103.4625,799.0625 1103.2906,799.2813 C1103.1813,799.4531 1103.15,799.6094 1103.15,800.0625 L1103.15,800.1875 L1101.6969,800.1875 L1101.6969,797.7813 L1105.6813,797.7813 L1105.6813,798.6406 C1105.6813,799.0469 1105.7125,799.2188 1105.7906,799.375 C1105.9625,799.625 1106.2438,799.7813 1106.525,799.7813 C1106.7906,799.7813 1107.0563,799.6406 1107.2281,799.4219 C1107.3375,799.25 1107.3688,799.1094 1107.3688,798.6406 L1107.3688,796.0938 L1099.7438,796.0938 C1099.3063,796.0938 1099.1813,796.1094 1099.025,796.2031 C1098.775,796.3594 1098.6188,796.6563 1098.6188,796.9375 C1098.6188,797.2188 1098.7594,797.4688 1098.9781,797.6406 C1099.1344,797.75 1099.3219,797.7813 1099.7438,797.7813 L1099.9938,797.7813 L1099.9938,804.2969 L1099.7438,804.2969 C1099.3375,804.2969 1099.1813,804.3125 1099.025,804.4219 C1098.775,804.5938 1098.6188,804.8594 1098.6188,805.1563 C1098.6188,805.4219 1098.7594,805.6719 1098.9781,805.8281 C1099.1188,805.9531 1099.3531,806 1099.7438,806 L1107.7438,806 L1107.7438,803.4219 C1107.7438,802.9844 1107.7125,802.8438 1107.6344,802.6875 C1107.4625,802.4375 1107.1813,802.2813 1106.9,802.2813 C1106.6344,802.2813 1106.3688,802.3906 1106.1969,802.6406 C1106.0875,802.7969 1106.0563,802.9375 1106.0563,803.4219 L1106.0563,804.2969 L1101.6969,804.2969 L1101.6969,801.875 Z " fill="#000000"/><text fill="#000000" font-family="sans-serif" font-size="14" lengthAdjust="spacing" textLength="51" x="1122.1" y="805.8467">ORDER</text><line style="stroke:#181818;stroke-width:0.5;" x1="1065.5" x2="1198.5" y1="817" y2="817"/><text fill="#000000" font-family="sans-serif" font-size="14" lengthAdjust="spacing" textLength="59" x="1070.5" y="833.9951">pending</text><text fill="#000000" font-family="sans-serif" font-size="14" lengthAdjust="spacing" textLength="68" x="1070.5" y="850.292">accepted</text><text fill="#000000" font-family="sans-serif" font-size="14" lengthAdjust="spacing" textLength="61" x="1070.5" y="866.5889">declined</text><text fill="#000000" font-family="sans-serif" font-size="14" lengthAdjust="spacing" textLength="31" x="1070.5" y="882.8857">paid</text><text fill="#000000" font-family="sans-serif" font-size="14" lengthAdjust="spacing" textLength="123" x="1070.5" y="899.1826">pending_delivery</text><text fill="#000000" font-family="sans-serif" font-size="14" lengthAdjust="spacing" textLength="67" x="1070.5" y="915.4795">delivered</text><text fill="#000000" font-family="sans-serif" font-size="14" lengthAdjust="spacing" textLength="68" x="1070.5" y="931.7764">cancelled</text><line style="stroke:#181818;stroke-width:0.5;" x1="1065.5" x2="1198.5" y1="939.0781" y2="939.0781"/></g><!--MD5=[06e19ebb60a385815e09d945ce1640d4]
class JOB--><g id="elem_JOB"><rect codeLine="30" fill="#F1F1F1" height="113.1875" id="JOB" rx="2.5" ry="2.5" style="stroke:#181818;stroke-width:0.5;" width="60" x="1348" y="809.5"/><ellipse cx="1364.35" cy="825.5" fill="#EB937F" rx="11" ry="11" style="stroke:#181818;stroke-width:1.0;"/><path d="M1363.1469,826.375 L1364.6,826.375 L1364.6,826.4844 C1364.6,826.8906 1364.6313,827.0469 1364.7094,827.2031 C1364.8656,827.4531 1365.1469,827.6094 1365.4438,827.6094 C1365.6938,827.6094 1365.9594,827.4688 1366.1156,827.25 C1366.2406,827.0938 1366.2719,826.9375 1366.2719,826.4844 L1366.2719,824.5625 C1366.2719,824.4063 1366.2719,824.3594 1366.2563,824.2031 C1366.1938,823.7344 1365.8813,823.4219 1365.4281,823.4219 C1365.1781,823.4219 1364.9125,823.5625 1364.7406,823.7813 C1364.6313,823.9531 1364.6,824.1094 1364.6,824.5625 L1364.6,824.6875 L1363.1469,824.6875 L1363.1469,822.2813 L1367.1313,822.2813 L1367.1313,823.1406 C1367.1313,823.5469 1367.1625,823.7188 1367.2406,823.875 C1367.4125,824.125 1367.6938,824.2813 1367.975,824.2813 C1368.2406,824.2813 1368.5063,824.1406 1368.6781,823.9219 C1368.7875,823.75 1368.8188,823.6094 1368.8188,823.1406 L1368.8188,820.5938 L1361.1938,820.5938 C1360.7563,820.5938 1360.6313,820.6094 1360.475,820.7031 C1360.225,820.8594 1360.0688,821.1563 1360.0688,821.4375 C1360.0688,821.7188 1360.2094,821.9688 1360.4281,822.1406 C1360.5844,822.25 1360.7719,822.2813 1361.1938,822.2813 L1361.4438,822.2813 L1361.4438,828.7969 L1361.1938,828.7969 C1360.7875,828.7969 1360.6313,828.8125 1360.475,828.9219 C1360.225,829.0938 1360.0688,829.3594 1360.0688,829.6563 C1360.0688,829.9219 1360.2094,830.1719 1360.4281,830.3281 C1360.5688,830.4531 1360.8031,830.5 1361.1938,830.5 L1369.1938,830.5 L1369.1938,827.9219 C1369.1938,827.4844 1369.1625,827.3438 1369.0844,827.1875 C1368.9125,826.9375 1368.6313,826.7813 1368.35,826.7813 C1368.0844,826.7813 1367.8188,826.8906 1367.6469,827.1406 C1367.5375,827.2969 1367.5063,827.4375 1367.5063,827.9219 L1367.5063,828.7969 L1363.1469,828.7969 L1363.1469,826.375 Z " fill="#000000"/><text fill="#000000" font-family="sans-serif" font-size="14" lengthAdjust="spacing" textLength="25" x="1378.65" y="830.3467">JOB</text><line style="stroke:#181818;stroke-width:0.5;" x1="1349" x2="1407" y1="841.5" y2="841.5"/><text fill="#000000" font-family="sans-serif" font-size="14" lengthAdjust="spacing" textLength="37" x="1354" y="858.4951">open</text><text fill="#000000" font-family="sans-serif" font-size="14" lengthAdjust="spacing" textLength="48" x="1354" y="874.792">locked</text><text fill="#000000" font-family="sans-serif" font-size="14" lengthAdjust="spacing" textLength="42" x="1354" y="891.0889">taken</text><text fill="#000000" font-family="sans-serif" font-size="14" lengthAdjust="spacing" textLength="46" x="1354" y="907.3857">closed</text><line style="stroke:#181818;stroke-width:0.5;" x1="1349" x2="1407" y1="914.6875" y2="914.6875"/></g><!--MD5=[99ac7e1fc8c93e478bf39d07169df7f7]
class CONTACT--><g id="elem_CONTACT"><rect codeLine="37" fill="#F1F1F1" height="113.1875" id="CONTACT" rx="2.5" ry="2.5" style="stroke:#181818;stroke-width:0.5;" width="101" x="153.5" y="809.5"/><ellipse cx="168.5" cy="825.5" fill="#EB937F" rx="11" ry="11" style="stroke:#181818;stroke-width:1.0;"/><path d="M167.2969,826.375 L168.75,826.375 L168.75,826.4844 C168.75,826.8906 168.7813,827.0469 168.8594,827.2031 C169.0156,827.4531 169.2969,827.6094 169.5938,827.6094 C169.8438,827.6094 170.1094,827.4688 170.2656,827.25 C170.3906,827.0938 170.4219,826.9375 170.4219,826.4844 L170.4219,824.5625 C170.4219,824.4063 170.4219,824.3594 170.4063,824.2031 C170.3438,823.7344 170.0313,823.4219 169.5781,823.4219 C169.3281,823.4219 169.0625,823.5625 168.8906,823.7813 C168.7813,823.9531 168.75,824.1094 168.75,824.5625 L168.75,824.6875 L167.2969,824.6875 L167.2969,822.2813 L171.2813,822.2813 L171.2813,823.1406 C171.2813,823.5469 171.3125,823.7188 171.3906,823.875 C171.5625,824.125 171.8438,824.2813 172.125,824.2813 C172.3906,824.2813 172.6563,824.1406 172.8281,823.9219 C172.9375,823.75 172.9688,823.6094 172.9688,823.1406 L172.9688,820.5938 L165.3438,820.5938 C164.9063,820.5938 164.7813,820.6094 164.625,820.7031 C164.375,820.8594 164.2188,821.1563 164.2188,821.4375 C164.2188,821.7188 164.3594,821.9688 164.5781,822.1406 C164.7344,822.25 164.9219,822.2813 165.3438,822.2813 L165.5938,822.2813 L165.5938,828.7969 L165.3438,828.7969 C164.9375,828.7969 164.7813,828.8125 164.625,828.9219 C164.375,829.0938 164.2188,829.3594 164.2188,829.6563 C164.2188,829.9219 164.3594,830.1719 164.5781,830.3281 C164.7188,830.4531 164.9531,830.5 165.3438,830.5 L173.3438,830.5 L173.3438,827.9219 C173.3438,827.4844 173.3125,827.3438 173.2344,827.1875 C173.0625,826.9375 172.7813,826.7813 172.5,826.7813 C172.2344,826.7813 171.9688,826.8906 171.7969,827.1406 C171.6875,827.2969 171.6563,827.4375 171.6563,827.9219 L171.6563,828.7969 L167.2969,828.7969 L167.2969,826.375 Z " fill="#000000"/><text fill="#000000" font-family="sans-serif" font-size="14" lengthAdjust="spacing" textLength="69" x="182.5" y="830.3467">CONTACT</text><line style="stroke:#181818;stroke-width:0.5;" x1="154.5" x2="253.5" y1="841.5" y2="841.5"/><text fill="#000000" font-family="sans-serif" font-size="14" lengthAdjust="spacing" textLength="51" x="159.5" y="858.4951">default</text><text fill="#000000" font-family="sans-serif" font-size="14" lengthAdjust="spacing" textLength="76" x="159.5" y="874.792">residential</text><text fill="#000000" font-family="sans-serif" font-size="14" lengthAdjust="spacing" textLength="42" x="159.5" y="891.0889">office</text><text fill="#000000" font-family="sans-serif" font-size="14" lengthAdjust="spacing" textLength="72" x="159.5" y="907.3857">art_studio</text><line style="stroke:#181818;stroke-width:0.5;" x1="154.5" x2="253.5" y1="914.6875" y2="914.6875"/></g><!--MD5=[3fd616f346a44cd59a91eb10b19e157c]
class User--><g id="elem_User"><rect codeLine="44" fill="#F1F1F1" height="341.3438" id="User" rx="2.5" ry="2.5" style="stroke:#181818;stroke-width:0.5;" width="183" x="481.5" y="7"/><ellipse cx="553.25" cy="23" fill="#ADD1B2" rx="11" ry="11" style="stroke:#181818;stroke-width:1.0;"/><path d="M552.0469,23.875 L553.5,23.875 L553.5,23.9844 C553.5,24.3906 553.5313,24.5469 553.6094,24.7031 C553.7656,24.9531 554.0469,25.1094 554.3438,25.1094 C554.5938,25.1094 554.8594,24.9688 555.0156,24.75 C555.1406,24.5938 555.1719,24.4375 555.1719,23.9844 L555.1719,22.0625 C555.1719,21.9063 555.1719,21.8594 555.1563,21.7031 C555.0938,21.2344 554.7813,20.9219 554.3281,20.9219 C554.0781,20.9219 553.8125,21.0625 553.6406,21.2813 C553.5313,21.4531 553.5,21.6094 553.5,22.0625 L553.5,22.1875 L552.0469,22.1875 L552.0469,19.7813 L556.0313,19.7813 L556.0313,20.6406 C556.0313,21.0469 556.0625,21.2188 556.1406,21.375 C556.3125,21.625 556.5938,21.7813 556.875,21.7813 C557.1406,21.7813 557.4063,21.6406 557.5781,21.4219 C557.6875,21.25 557.7188,21.1094 557.7188,20.6406 L557.7188,18.0938 L550.0938,18.0938 C549.6563,18.0938 549.5313,18.1094 549.375,18.2031 C549.125,18.3594 548.9688,18.6563 548.9688,18.9375 C548.9688,19.2188 549.1094,19.4688 549.3281,19.6406 C549.4844,19.75 549.6719,19.7813 550.0938,19.7813 L550.3438,19.7813 L550.3438,26.2969 L550.0938,26.2969 C549.6875,26.2969 549.5313,26.3125 549.375,26.4219 C549.125,26.5938 548.9688,26.8594 548.9688,27.1563 C548.9688,27.4219 549.1094,27.6719 549.3281,27.8281 C549.4688,27.9531 549.7031,28 550.0938,28 L558.0938,28 L558.0938,25.4219 C558.0938,24.9844 558.0625,24.8438 557.9844,24.6875 C557.8125,24.4375 557.5313,24.2813 557.25,24.2813 C556.9844,24.2813 556.7188,24.3906 556.5469,24.6406 C556.4375,24.7969 556.4063,24.9375 556.4063,25.4219 L556.4063,26.2969 L552.0469,26.2969 L552.0469,23.875 Z " fill="#000000"/><text fill="#000000" font-family="sans-serif" font-size="14" lengthAdjust="spacing" textLength="31" x="573.75" y="27.8467">User</text><line style="stroke:#181818;stroke-width:0.5;" x1="482.5" x2="663.5" y1="39" y2="39"/><ellipse cx="492.5" cy="52.6484" fill="#000000" rx="3" ry="3" style="stroke:#000000;stroke-width:1.0;"/><text fill="#000000" font-family="sans-serif" font-size="14" lengthAdjust="spacing" textLength="66" x="501.5" y="55.9951">id: String</text><ellipse cx="492.5" cy="68.9453" fill="#000000" rx="3" ry="3" style="stroke:#000000;stroke-width:1.0;"/><text fill="#000000" font-family="sans-serif" font-size="14" lengthAdjust="spacing" textLength="92" x="501.5" y="72.292">email: String</text><ellipse cx="492.5" cy="85.2422" fill="#000000" rx="3" ry="3" style="stroke:#000000;stroke-width:1.0;"/><text fill="#000000" font-family="sans-serif" font-size="14" lengthAdjust="spacing" textLength="120" x="501.5" y="88.5889">password: String</text><ellipse cx="492.5" cy="101.5391" fill="#000000" rx="3" ry="3" style="stroke:#000000;stroke-width:1.0;"/><text fill="#000000" font-family="sans-serif" font-size="14" lengthAdjust="spacing" textLength="75" x="501.5" y="104.8857">role: ROLE</text><ellipse cx="492.5" cy="117.8359" fill="#000000" rx="3" ry="3" style="stroke:#000000;stroke-width:1.0;"/><text fill="#000000" font-family="sans-serif" font-size="14" lengthAdjust="spacing" textLength="130" x="501.5" y="121.1826">first_name: String</text><ellipse cx="492.5" cy="134.1328" fill="#000000" rx="3" ry="3" style="stroke:#000000;stroke-width:1.0;"/><text fill="#000000" font-family="sans-serif" font-size="14" lengthAdjust="spacing" textLength="126" x="501.5" y="137.4795">last_name: String</text><text fill="#000000" font-family="sans-serif" font-size="14" lengthAdjust="spacing" textLength="147" x="501.5" y="153.7764">other_name: String?</text><text fill="#000000" font-family="sans-serif" font-size="14" lengthAdjust="spacing" textLength="105" x="501.5" y="170.0732">avatar: String?</text><text fill="#000000" font-family="sans-serif" font-size="14" lengthAdjust="spacing" textLength="157" x="501.5" y="186.3701">display_name: String?</text><text fill="#000000" font-family="sans-serif" font-size="14" lengthAdjust="spacing" textLength="96" x="501.5" y="202.667">artist: Artist?</text><ellipse cx="492.5" cy="215.6172" fill="#000000" rx="3" ry="3" style="stroke:#000000;stroke-width:1.0;"/><text fill="#000000" font-family="sans-serif" font-size="14" lengthAdjust="spacing" textLength="99" x="501.5" y="218.9639">works: Work[]</text><ellipse cx="492.5" cy="231.9141" fill="#000000" rx="3" ry="3" style="stroke:#000000;stroke-width:1.0;"/><text fill="#000000" font-family="sans-serif" font-size="14" lengthAdjust="spacing" textLength="72" x="501.5" y="235.2607">jobs: Job[]</text><ellipse cx="492.5" cy="248.2109" fill="#000000" rx="3" ry="3" style="stroke:#000000;stroke-width:1.0;"/><text fill="#000000" font-family="sans-serif" font-size="14" lengthAdjust="spacing" textLength="106" x="501.5" y="251.5576">orders: Order[]</text><ellipse cx="492.5" cy="264.5078" fill="#000000" rx="3" ry="3" style="stroke:#000000;stroke-width:1.0;"/><text fill="#000000" font-family="sans-serif" font-size="14" lengthAdjust="spacing" textLength="110" x="501.5" y="267.8545">wishlist: Work[]</text><ellipse cx="492.5" cy="280.8047" fill="#000000" rx="3" ry="3" style="stroke:#000000;stroke-width:1.0;"/><text fill="#000000" font-family="sans-serif" font-size="14" lengthAdjust="spacing" textLength="134" x="501.5" y="284.1514">biddings: Bidding[]</text><ellipse cx="492.5" cy="297.1016" fill="#000000" rx="3" ry="3" style="stroke:#000000;stroke-width:1.0;"/><text fill="#000000" font-family="sans-serif" font-size="14" lengthAdjust="spacing" textLength="140" x="501.5" y="300.4482">contacts: Contact[]</text><ellipse cx="492.5" cy="313.3984" fill="#000000" rx="3" ry="3" style="stroke:#000000;stroke-width:1.0;"/><text fill="#000000" font-family="sans-serif" font-size="14" lengthAdjust="spacing" textLength="153" x="501.5" y="316.7451">createdAt: DateTime</text><ellipse cx="492.5" cy="329.6953" fill="#000000" rx="3" ry="3" style="stroke:#000000;stroke-width:1.0;"/><text fill="#000000" font-family="sans-serif" font-size="14" lengthAdjust="spacing" textLength="157" x="501.5" y="333.042">updatedAt: DateTime</text><line style="stroke:#181818;stroke-width:0.5;" x1="482.5" x2="663.5" y1="340.3438" y2="340.3438"/></g><!--MD5=[72ce1314beffbcf60a64ee91fbbc10dc]
class Contact--><g id="elem_Contact"><rect codeLine="65" fill="#F1F1F1" height="276.1563" id="Contact" rx="2.5" ry="2.5" style="stroke:#181818;stroke-width:0.5;" width="183" x="112.5" y="424.5"/><ellipse cx="170.75" cy="440.5" fill="#ADD1B2" rx="11" ry="11" style="stroke:#181818;stroke-width:1.0;"/><path d="M169.5469,441.375 L171,441.375 L171,441.4844 C171,441.8906 171.0313,442.0469 171.1094,442.2031 C171.2656,442.4531 171.5469,442.6094 171.8438,442.6094 C172.0938,442.6094 172.3594,442.4688 172.5156,442.25 C172.6406,442.0938 172.6719,441.9375 172.6719,441.4844 L172.6719,439.5625 C172.6719,439.4063 172.6719,439.3594 172.6563,439.2031 C172.5938,438.7344 172.2813,438.4219 171.8281,438.4219 C171.5781,438.4219 171.3125,438.5625 171.1406,438.7813 C171.0313,438.9531 171,439.1094 171,439.5625 L171,439.6875 L169.5469,439.6875 L169.5469,437.2813 L173.5313,437.2813 L173.5313,438.1406 C173.5313,438.5469 173.5625,438.7188 173.6406,438.875 C173.8125,439.125 174.0938,439.2813 174.375,439.2813 C174.6406,439.2813 174.9063,439.1406 175.0781,438.9219 C175.1875,438.75 175.2188,438.6094 175.2188,438.1406 L175.2188,435.5938 L167.5938,435.5938 C167.1563,435.5938 167.0313,435.6094 166.875,435.7031 C166.625,435.8594 166.4688,436.1563 166.4688,436.4375 C166.4688,436.7188 166.6094,436.9688 166.8281,437.1406 C166.9844,437.25 167.1719,437.2813 167.5938,437.2813 L167.8438,437.2813 L167.8438,443.7969 L167.5938,443.7969 C167.1875,443.7969 167.0313,443.8125 166.875,443.9219 C166.625,444.0938 166.4688,444.3594 166.4688,444.6563 C166.4688,444.9219 166.6094,445.1719 166.8281,445.3281 C166.9688,445.4531 167.2031,445.5 167.5938,445.5 L175.5938,445.5 L175.5938,442.9219 C175.5938,442.4844 175.5625,442.3438 175.4844,442.1875 C175.3125,441.9375 175.0313,441.7813 174.75,441.7813 C174.4844,441.7813 174.2188,441.8906 174.0469,442.1406 C173.9375,442.2969 173.9063,442.4375 173.9063,442.9219 L173.9063,443.7969 L169.5469,443.7969 L169.5469,441.375 Z " fill="#000000"/><text fill="#000000" font-family="sans-serif" font-size="14" lengthAdjust="spacing" textLength="58" x="191.25" y="445.3467">Contact</text><line style="stroke:#181818;stroke-width:0.5;" x1="113.5" x2="294.5" y1="456.5" y2="456.5"/><ellipse cx="123.5" cy="470.1484" fill="#000000" rx="3" ry="3" style="stroke:#000000;stroke-width:1.0;"/><text fill="#000000" font-family="sans-serif" font-size="14" lengthAdjust="spacing" textLength="66" x="132.5" y="473.4951">id: String</text><text fill="#000000" font-family="sans-serif" font-size="14" lengthAdjust="spacing" textLength="119" x="132.5" y="489.792">type: CONTACT?</text><ellipse cx="123.5" cy="502.7422" fill="#000000" rx="3" ry="3" style="stroke:#000000;stroke-width:1.0;"/><text fill="#000000" font-family="sans-serif" font-size="14" lengthAdjust="spacing" textLength="99" x="132.5" y="506.0889">phone: String</text><text fill="#000000" font-family="sans-serif" font-size="14" lengthAdjust="spacing" textLength="99" x="132.5" y="522.3857">email: String?</text><ellipse cx="123.5" cy="535.3359" fill="#000000" rx="3" ry="3" style="stroke:#000000;stroke-width:1.0;"/><text fill="#000000" font-family="sans-serif" font-size="14" lengthAdjust="spacing" textLength="108" x="132.5" y="538.6826">address: String</text><ellipse cx="123.5" cy="551.6328" fill="#000000" rx="3" ry="3" style="stroke:#000000;stroke-width:1.0;"/><text fill="#000000" font-family="sans-serif" font-size="14" lengthAdjust="spacing" textLength="80" x="132.5" y="554.9795">city: String</text><ellipse cx="123.5" cy="567.9297" fill="#000000" rx="3" ry="3" style="stroke:#000000;stroke-width:1.0;"/><text fill="#000000" font-family="sans-serif" font-size="14" lengthAdjust="spacing" textLength="91" x="132.5" y="571.2764">state: String</text><ellipse cx="123.5" cy="584.2266" fill="#000000" rx="3" ry="3" style="stroke:#000000;stroke-width:1.0;"/><text fill="#000000" font-family="sans-serif" font-size="14" lengthAdjust="spacing" textLength="108" x="132.5" y="587.5732">country: String</text><ellipse cx="123.5" cy="600.5234" fill="#000000" rx="3" ry="3" style="stroke:#000000;stroke-width:1.0;"/><text fill="#000000" font-family="sans-serif" font-size="14" lengthAdjust="spacing" textLength="110" x="132.5" y="603.8701">zipcode: String</text><text fill="#000000" font-family="sans-serif" font-size="14" lengthAdjust="spacing" textLength="119" x="132.5" y="620.167">position: String?</text><text fill="#000000" font-family="sans-serif" font-size="14" lengthAdjust="spacing" textLength="91" x="132.5" y="636.4639">owner: User?</text><text fill="#000000" font-family="sans-serif" font-size="14" lengthAdjust="spacing" textLength="117" x="132.5" y="652.7607">ownerId: String?</text><ellipse cx="123.5" cy="665.7109" fill="#000000" rx="3" ry="3" style="stroke:#000000;stroke-width:1.0;"/><text fill="#000000" font-family="sans-serif" font-size="14" lengthAdjust="spacing" textLength="153" x="132.5" y="669.0576">createdAt: DateTime</text><ellipse cx="123.5" cy="682.0078" fill="#000000" rx="3" ry="3" style="stroke:#000000;stroke-width:1.0;"/><text fill="#000000" font-family="sans-serif" font-size="14" lengthAdjust="spacing" textLength="157" x="132.5" y="685.3545">updatedAt: DateTime</text><line style="stroke:#181818;stroke-width:0.5;" x1="113.5" x2="294.5" y1="692.6563" y2="692.6563"/></g><!--MD5=[8ae2c2db09eb731972ab511bcae12bf3]
class Artist--><g id="elem_Artist"><rect codeLine="82" fill="#F1F1F1" height="162.0781" id="Artist" rx="2.5" ry="2.5" style="stroke:#181818;stroke-width:0.5;" width="239" x="330.5" y="481.5"/><ellipse cx="425.25" cy="497.5" fill="#ADD1B2" rx="11" ry="11" style="stroke:#181818;stroke-width:1.0;"/><path d="M424.0469,498.375 L425.5,498.375 L425.5,498.4844 C425.5,498.8906 425.5313,499.0469 425.6094,499.2031 C425.7656,499.4531 426.0469,499.6094 426.3438,499.6094 C426.5938,499.6094 426.8594,499.4688 427.0156,499.25 C427.1406,499.0938 427.1719,498.9375 427.1719,498.4844 L427.1719,496.5625 C427.1719,496.4063 427.1719,496.3594 427.1563,496.2031 C427.0938,495.7344 426.7813,495.4219 426.3281,495.4219 C426.0781,495.4219 425.8125,495.5625 425.6406,495.7813 C425.5313,495.9531 425.5,496.1094 425.5,496.5625 L425.5,496.6875 L424.0469,496.6875 L424.0469,494.2813 L428.0313,494.2813 L428.0313,495.1406 C428.0313,495.5469 428.0625,495.7188 428.1406,495.875 C428.3125,496.125 428.5938,496.2813 428.875,496.2813 C429.1406,496.2813 429.4063,496.1406 429.5781,495.9219 C429.6875,495.75 429.7188,495.6094 429.7188,495.1406 L429.7188,492.5938 L422.0938,492.5938 C421.6563,492.5938 421.5313,492.6094 421.375,492.7031 C421.125,492.8594 420.9688,493.1563 420.9688,493.4375 C420.9688,493.7188 421.1094,493.9688 421.3281,494.1406 C421.4844,494.25 421.6719,494.2813 422.0938,494.2813 L422.3438,494.2813 L422.3438,500.7969 L422.0938,500.7969 C421.6875,500.7969 421.5313,500.8125 421.375,500.9219 C421.125,501.0938 420.9688,501.3594 420.9688,501.6563 C420.9688,501.9219 421.1094,502.1719 421.3281,502.3281 C421.4688,502.4531 421.7031,502.5 422.0938,502.5 L430.0938,502.5 L430.0938,499.9219 C430.0938,499.4844 430.0625,499.3438 429.9844,499.1875 C429.8125,498.9375 429.5313,498.7813 429.25,498.7813 C428.9844,498.7813 428.7188,498.8906 428.5469,499.1406 C428.4375,499.2969 428.4063,499.4375 428.4063,499.9219 L428.4063,500.7969 L424.0469,500.7969 L424.0469,498.375 Z " fill="#000000"/><text fill="#000000" font-family="sans-serif" font-size="14" lengthAdjust="spacing" textLength="41" x="445.75" y="502.3467">Artist</text><line style="stroke:#181818;stroke-width:0.5;" x1="331.5" x2="568.5" y1="513.5" y2="513.5"/><ellipse cx="341.5" cy="527.1484" fill="#000000" rx="3" ry="3" style="stroke:#000000;stroke-width:1.0;"/><text fill="#000000" font-family="sans-serif" font-size="14" lengthAdjust="spacing" textLength="66" x="350.5" y="530.4951">id: String</text><ellipse cx="341.5" cy="543.4453" fill="#000000" rx="3" ry="3" style="stroke:#000000;stroke-width:1.0;"/><text fill="#000000" font-family="sans-serif" font-size="14" lengthAdjust="spacing" textLength="70" x="350.5" y="546.792">user: User</text><ellipse cx="341.5" cy="559.7422" fill="#000000" rx="3" ry="3" style="stroke:#000000;stroke-width:1.0;"/><text fill="#000000" font-family="sans-serif" font-size="14" lengthAdjust="spacing" textLength="96" x="350.5" y="563.0889">userId: String</text><ellipse cx="341.5" cy="576.0391" fill="#000000" rx="3" ry="3" style="stroke:#000000;stroke-width:1.0;"/><text fill="#000000" font-family="sans-serif" font-size="14" lengthAdjust="spacing" textLength="99" x="350.5" y="579.3857">works: Work[]</text><ellipse cx="341.5" cy="592.3359" fill="#000000" rx="3" ry="3" style="stroke:#000000;stroke-width:1.0;"/><text fill="#000000" font-family="sans-serif" font-size="14" lengthAdjust="spacing" textLength="213" x="350.5" y="595.6826">applications: JobApplication[]</text><ellipse cx="341.5" cy="608.6328" fill="#000000" rx="3" ry="3" style="stroke:#000000;stroke-width:1.0;"/><text fill="#000000" font-family="sans-serif" font-size="14" lengthAdjust="spacing" textLength="153" x="350.5" y="611.9795">createdAt: DateTime</text><ellipse cx="341.5" cy="624.9297" fill="#000000" rx="3" ry="3" style="stroke:#000000;stroke-width:1.0;"/><text fill="#000000" font-family="sans-serif" font-size="14" lengthAdjust="spacing" textLength="157" x="350.5" y="628.2764">updatedAt: DateTime</text><line style="stroke:#181818;stroke-width:0.5;" x1="331.5" x2="568.5" y1="635.5781" y2="635.5781"/></g><!--MD5=[482411d91ae66d861cdea1bfa312d1e2]
class Work--><g id="elem_Work"><rect codeLine="92" fill="#F1F1F1" height="308.75" id="Work" rx="2.5" ry="2.5" style="stroke:#181818;stroke-width:0.5;" width="183" x="604.5" y="408"/><ellipse cx="672.75" cy="424" fill="#ADD1B2" rx="11" ry="11" style="stroke:#181818;stroke-width:1.0;"/><path d="M671.5469,424.875 L673,424.875 L673,424.9844 C673,425.3906 673.0313,425.5469 673.1094,425.7031 C673.2656,425.9531 673.5469,426.1094 673.8438,426.1094 C674.0938,426.1094 674.3594,425.9688 674.5156,425.75 C674.6406,425.5938 674.6719,425.4375 674.6719,424.9844 L674.6719,423.0625 C674.6719,422.9063 674.6719,422.8594 674.6563,422.7031 C674.5938,422.2344 674.2813,421.9219 673.8281,421.9219 C673.5781,421.9219 673.3125,422.0625 673.1406,422.2813 C673.0313,422.4531 673,422.6094 673,423.0625 L673,423.1875 L671.5469,423.1875 L671.5469,420.7813 L675.5313,420.7813 L675.5313,421.6406 C675.5313,422.0469 675.5625,422.2188 675.6406,422.375 C675.8125,422.625 676.0938,422.7813 676.375,422.7813 C676.6406,422.7813 676.9063,422.6406 677.0781,422.4219 C677.1875,422.25 677.2188,422.1094 677.2188,421.6406 L677.2188,419.0938 L669.5938,419.0938 C669.1563,419.0938 669.0313,419.1094 668.875,419.2031 C668.625,419.3594 668.4688,419.6563 668.4688,419.9375 C668.4688,420.2188 668.6094,420.4688 668.8281,420.6406 C668.9844,420.75 669.1719,420.7813 669.5938,420.7813 L669.8438,420.7813 L669.8438,427.2969 L669.5938,427.2969 C669.1875,427.2969 669.0313,427.3125 668.875,427.4219 C668.625,427.5938 668.4688,427.8594 668.4688,428.1563 C668.4688,428.4219 668.6094,428.6719 668.8281,428.8281 C668.9688,428.9531 669.2031,429 669.5938,429 L677.5938,429 L677.5938,426.4219 C677.5938,425.9844 677.5625,425.8438 677.4844,425.6875 C677.3125,425.4375 677.0313,425.2813 676.75,425.2813 C676.4844,425.2813 676.2188,425.3906 676.0469,425.6406 C675.9375,425.7969 675.9063,425.9375 675.9063,426.4219 L675.9063,427.2969 L671.5469,427.2969 L671.5469,424.875 Z " fill="#000000"/><text fill="#000000" font-family="sans-serif" font-size="14" lengthAdjust="spacing" textLength="38" x="693.25" y="428.8467">Work</text><line style="stroke:#181818;stroke-width:0.5;" x1="605.5" x2="786.5" y1="440" y2="440"/><ellipse cx="615.5" cy="453.6484" fill="#000000" rx="3" ry="3" style="stroke:#000000;stroke-width:1.0;"/><text fill="#000000" font-family="sans-serif" font-size="14" lengthAdjust="spacing" textLength="66" x="624.5" y="456.9951">id: String</text><ellipse cx="615.5" cy="469.9453" fill="#000000" rx="3" ry="3" style="stroke:#000000;stroke-width:1.0;"/><text fill="#000000" font-family="sans-serif" font-size="14" lengthAdjust="spacing" textLength="84" x="624.5" y="473.292">title: String</text><text fill="#000000" font-family="sans-serif" font-size="14" lengthAdjust="spacing" textLength="142" x="624.5" y="489.5889">description: String?</text><text fill="#000000" font-family="sans-serif" font-size="14" lengthAdjust="spacing" textLength="96" x="624.5" y="505.8857">artist: Artist?</text><text fill="#000000" font-family="sans-serif" font-size="14" lengthAdjust="spacing" textLength="112" x="624.5" y="522.1826">artistId: String?</text><ellipse cx="615.5" cy="535.1328" fill="#000000" rx="3" ry="3" style="stroke:#000000;stroke-width:1.0;"/><text fill="#000000" font-family="sans-serif" font-size="14" lengthAdjust="spacing" textLength="89" x="624.5" y="538.4795">views: User[]</text><ellipse cx="615.5" cy="551.4297" fill="#000000" rx="3" ry="3" style="stroke:#000000;stroke-width:1.0;"/><text fill="#000000" font-family="sans-serif" font-size="14" lengthAdjust="spacing" textLength="134" x="624.5" y="554.7764">biddings: Bidding[]</text><ellipse cx="615.5" cy="567.7266" fill="#000000" rx="3" ry="3" style="stroke:#000000;stroke-width:1.0;"/><text fill="#000000" font-family="sans-serif" font-size="14" lengthAdjust="spacing" textLength="106" x="624.5" y="571.0732">orders: Order[]</text><text fill="#000000" font-family="sans-serif" font-size="14" lengthAdjust="spacing" textLength="111" x="624.5" y="587.3701">price: Decimal?</text><text fill="#000000" font-family="sans-serif" font-size="14" lengthAdjust="spacing" textLength="122" x="624.5" y="603.667">currency: String?</text><ellipse cx="615.5" cy="616.6172" fill="#000000" rx="3" ry="3" style="stroke:#000000;stroke-width:1.0;"/><text fill="#000000" font-family="sans-serif" font-size="14" lengthAdjust="spacing" textLength="113" x="624.5" y="619.9639">sellAs: SELLAS[]</text><text fill="#000000" font-family="sans-serif" font-size="14" lengthAdjust="spacing" textLength="116" x="624.5" y="636.2607">isSold: Boolean?</text><text fill="#000000" font-family="sans-serif" font-size="14" lengthAdjust="spacing" textLength="75" x="624.5" y="652.5576">files: Json?</text><ellipse cx="615.5" cy="665.5078" fill="#000000" rx="3" ry="3" style="stroke:#000000;stroke-width:1.0;"/><text fill="#000000" font-family="sans-serif" font-size="14" lengthAdjust="spacing" textLength="129" x="624.5" y="668.8545">watchedBy: User[]</text><ellipse cx="615.5" cy="681.8047" fill="#000000" rx="3" ry="3" style="stroke:#000000;stroke-width:1.0;"/><text fill="#000000" font-family="sans-serif" font-size="14" lengthAdjust="spacing" textLength="153" x="624.5" y="685.1514">createdAt: DateTime</text><ellipse cx="615.5" cy="698.1016" fill="#000000" rx="3" ry="3" style="stroke:#000000;stroke-width:1.0;"/><text fill="#000000" font-family="sans-serif" font-size="14" lengthAdjust="spacing" textLength="157" x="624.5" y="701.4482">updatedAt: DateTime</text><line style="stroke:#181818;stroke-width:0.5;" x1="605.5" x2="786.5" y1="708.75" y2="708.75"/></g><!--MD5=[9adc28f6e350b86d22181e07893b01e8]
class Bidding--><g id="elem_Bidding"><rect codeLine="111" fill="#F1F1F1" height="194.6719" id="Bidding" rx="2.5" ry="2.5" style="stroke:#181818;stroke-width:0.5;" width="183" x="822.5" y="465"/><ellipse cx="882.75" cy="481" fill="#ADD1B2" rx="11" ry="11" style="stroke:#181818;stroke-width:1.0;"/><path d="M881.5469,481.875 L883,481.875 L883,481.9844 C883,482.3906 883.0313,482.5469 883.1094,482.7031 C883.2656,482.9531 883.5469,483.1094 883.8438,483.1094 C884.0938,483.1094 884.3594,482.9688 884.5156,482.75 C884.6406,482.5938 884.6719,482.4375 884.6719,481.9844 L884.6719,480.0625 C884.6719,479.9063 884.6719,479.8594 884.6563,479.7031 C884.5938,479.2344 884.2813,478.9219 883.8281,478.9219 C883.5781,478.9219 883.3125,479.0625 883.1406,479.2813 C883.0313,479.4531 883,479.6094 883,480.0625 L883,480.1875 L881.5469,480.1875 L881.5469,477.7813 L885.5313,477.7813 L885.5313,478.6406 C885.5313,479.0469 885.5625,479.2188 885.6406,479.375 C885.8125,479.625 886.0938,479.7813 886.375,479.7813 C886.6406,479.7813 886.9063,479.6406 887.0781,479.4219 C887.1875,479.25 887.2188,479.1094 887.2188,478.6406 L887.2188,476.0938 L879.5938,476.0938 C879.1563,476.0938 879.0313,476.1094 878.875,476.2031 C878.625,476.3594 878.4688,476.6563 878.4688,476.9375 C878.4688,477.2188 878.6094,477.4688 878.8281,477.6406 C878.9844,477.75 879.1719,477.7813 879.5938,477.7813 L879.8438,477.7813 L879.8438,484.2969 L879.5938,484.2969 C879.1875,484.2969 879.0313,484.3125 878.875,484.4219 C878.625,484.5938 878.4688,484.8594 878.4688,485.1563 C878.4688,485.4219 878.6094,485.6719 878.8281,485.8281 C878.9688,485.9531 879.2031,486 879.5938,486 L887.5938,486 L887.5938,483.4219 C887.5938,482.9844 887.5625,482.8438 887.4844,482.6875 C887.3125,482.4375 887.0313,482.2813 886.75,482.2813 C886.4844,482.2813 886.2188,482.3906 886.0469,482.6406 C885.9375,482.7969 885.9063,482.9375 885.9063,483.4219 L885.9063,484.2969 L881.5469,484.2969 L881.5469,481.875 Z " fill="#000000"/><text fill="#000000" font-family="sans-serif" font-size="14" lengthAdjust="spacing" textLength="54" x="903.25" y="485.8467">Bidding</text><line style="stroke:#181818;stroke-width:0.5;" x1="823.5" x2="1004.5" y1="497" y2="497"/><ellipse cx="833.5" cy="510.6484" fill="#000000" rx="3" ry="3" style="stroke:#000000;stroke-width:1.0;"/><text fill="#000000" font-family="sans-serif" font-size="14" lengthAdjust="spacing" textLength="66" x="842.5" y="513.9951">id: String</text><ellipse cx="833.5" cy="526.9453" fill="#000000" rx="3" ry="3" style="stroke:#000000;stroke-width:1.0;"/><text fill="#000000" font-family="sans-serif" font-size="14" lengthAdjust="spacing" textLength="82" x="842.5" y="530.292">work: Work</text><ellipse cx="833.5" cy="543.2422" fill="#000000" rx="3" ry="3" style="stroke:#000000;stroke-width:1.0;"/><text fill="#000000" font-family="sans-serif" font-size="14" lengthAdjust="spacing" textLength="101" x="842.5" y="546.5889">workId: String</text><text fill="#000000" font-family="sans-serif" font-size="14" lengthAdjust="spacing" textLength="77" x="842.5" y="562.8857">user: User?</text><text fill="#000000" font-family="sans-serif" font-size="14" lengthAdjust="spacing" textLength="103" x="842.5" y="579.1826">userId: String?</text><ellipse cx="833.5" cy="592.1328" fill="#000000" rx="3" ry="3" style="stroke:#000000;stroke-width:1.0;"/><text fill="#000000" font-family="sans-serif" font-size="14" lengthAdjust="spacing" textLength="103" x="842.5" y="595.4795">offer: Decimal</text><text fill="#000000" font-family="sans-serif" font-size="14" lengthAdjust="spacing" textLength="121" x="842.5" y="611.7764">status: BIDDING?</text><ellipse cx="833.5" cy="624.7266" fill="#000000" rx="3" ry="3" style="stroke:#000000;stroke-width:1.0;"/><text fill="#000000" font-family="sans-serif" font-size="14" lengthAdjust="spacing" textLength="153" x="842.5" y="628.0732">createdAt: DateTime</text><ellipse cx="833.5" cy="641.0234" fill="#000000" rx="3" ry="3" style="stroke:#000000;stroke-width:1.0;"/><text fill="#000000" font-family="sans-serif" font-size="14" lengthAdjust="spacing" textLength="157" x="842.5" y="644.3701">updatedAt: DateTime</text><line style="stroke:#181818;stroke-width:0.5;" x1="823.5" x2="1004.5" y1="651.6719" y2="651.6719"/></g><!--MD5=[cf4d6237fcae255cd2e1656cf84a30e2]
class Order--><g id="elem_Order"><rect codeLine="123" fill="#F1F1F1" height="227.2656" id="Order" rx="2.5" ry="2.5" style="stroke:#181818;stroke-width:0.5;" width="183" x="1040.5" y="449"/><ellipse cx="1107.25" cy="465" fill="#ADD1B2" rx="11" ry="11" style="stroke:#181818;stroke-width:1.0;"/><path d="M1106.0469,465.875 L1107.5,465.875 L1107.5,465.9844 C1107.5,466.3906 1107.5313,466.5469 1107.6094,466.7031 C1107.7656,466.9531 1108.0469,467.1094 1108.3438,467.1094 C1108.5938,467.1094 1108.8594,466.9688 1109.0156,466.75 C1109.1406,466.5938 1109.1719,466.4375 1109.1719,465.9844 L1109.1719,464.0625 C1109.1719,463.9063 1109.1719,463.8594 1109.1563,463.7031 C1109.0938,463.2344 1108.7813,462.9219 1108.3281,462.9219 C1108.0781,462.9219 1107.8125,463.0625 1107.6406,463.2813 C1107.5313,463.4531 1107.5,463.6094 1107.5,464.0625 L1107.5,464.1875 L1106.0469,464.1875 L1106.0469,461.7813 L1110.0313,461.7813 L1110.0313,462.6406 C1110.0313,463.0469 1110.0625,463.2188 1110.1406,463.375 C1110.3125,463.625 1110.5938,463.7813 1110.875,463.7813 C1111.1406,463.7813 1111.4063,463.6406 1111.5781,463.4219 C1111.6875,463.25 1111.7188,463.1094 1111.7188,462.6406 L1111.7188,460.0938 L1104.0938,460.0938 C1103.6563,460.0938 1103.5313,460.1094 1103.375,460.2031 C1103.125,460.3594 1102.9688,460.6563 1102.9688,460.9375 C1102.9688,461.2188 1103.1094,461.4688 1103.3281,461.6406 C1103.4844,461.75 1103.6719,461.7813 1104.0938,461.7813 L1104.3438,461.7813 L1104.3438,468.2969 L1104.0938,468.2969 C1103.6875,468.2969 1103.5313,468.3125 1103.375,468.4219 C1103.125,468.5938 1102.9688,468.8594 1102.9688,469.1563 C1102.9688,469.4219 1103.1094,469.6719 1103.3281,469.8281 C1103.4688,469.9531 1103.7031,470 1104.0938,470 L1112.0938,470 L1112.0938,467.4219 C1112.0938,466.9844 1112.0625,466.8438 1111.9844,466.6875 C1111.8125,466.4375 1111.5313,466.2813 1111.25,466.2813 C1110.9844,466.2813 1110.7188,466.3906 1110.5469,466.6406 C1110.4375,466.7969 1110.4063,466.9375 1110.4063,467.4219 L1110.4063,468.2969 L1106.0469,468.2969 L1106.0469,465.875 Z " fill="#000000"/><text fill="#000000" font-family="sans-serif" font-size="14" lengthAdjust="spacing" textLength="41" x="1127.75" y="469.8467">Order</text><line style="stroke:#181818;stroke-width:0.5;" x1="1041.5" x2="1222.5" y1="481" y2="481"/><ellipse cx="1051.5" cy="494.6484" fill="#000000" rx="3" ry="3" style="stroke:#000000;stroke-width:1.0;"/><text fill="#000000" font-family="sans-serif" font-size="14" lengthAdjust="spacing" textLength="66" x="1060.5" y="497.9951">id: String</text><text fill="#000000" font-family="sans-serif" font-size="14" lengthAdjust="spacing" textLength="142" x="1060.5" y="514.292">description: String?</text><text fill="#000000" font-family="sans-serif" font-size="14" lengthAdjust="spacing" textLength="77" x="1060.5" y="530.5889">user: User?</text><text fill="#000000" font-family="sans-serif" font-size="14" lengthAdjust="spacing" textLength="103" x="1060.5" y="546.8857">userId: String?</text><ellipse cx="1051.5" cy="559.8359" fill="#000000" rx="3" ry="3" style="stroke:#000000;stroke-width:1.0;"/><text fill="#000000" font-family="sans-serif" font-size="14" lengthAdjust="spacing" textLength="104" x="1060.5" y="563.1826">status: ORDER</text><ellipse cx="1051.5" cy="576.1328" fill="#000000" rx="3" ry="3" style="stroke:#000000;stroke-width:1.0;"/><text fill="#000000" font-family="sans-serif" font-size="14" lengthAdjust="spacing" textLength="82" x="1060.5" y="579.4795">work: Work</text><ellipse cx="1051.5" cy="592.4297" fill="#000000" rx="3" ry="3" style="stroke:#000000;stroke-width:1.0;"/><text fill="#000000" font-family="sans-serif" font-size="14" lengthAdjust="spacing" textLength="101" x="1060.5" y="595.7764">workId: String</text><text fill="#000000" font-family="sans-serif" font-size="14" lengthAdjust="spacing" textLength="111" x="1060.5" y="612.0732">price: Decimal?</text><text fill="#000000" font-family="sans-serif" font-size="14" lengthAdjust="spacing" textLength="122" x="1060.5" y="628.3701">currency: String?</text><ellipse cx="1051.5" cy="641.3203" fill="#000000" rx="3" ry="3" style="stroke:#000000;stroke-width:1.0;"/><text fill="#000000" font-family="sans-serif" font-size="14" lengthAdjust="spacing" textLength="153" x="1060.5" y="644.667">createdAt: DateTime</text><ellipse cx="1051.5" cy="657.6172" fill="#000000" rx="3" ry="3" style="stroke:#000000;stroke-width:1.0;"/><text fill="#000000" font-family="sans-serif" font-size="14" lengthAdjust="spacing" textLength="157" x="1060.5" y="660.9639">updatedAt: DateTime</text><line style="stroke:#181818;stroke-width:0.5;" x1="1041.5" x2="1222.5" y1="668.2656" y2="668.2656"/></g><!--MD5=[b8e0354e0f3f5cbf52553869b78c0afa]
class Job--><g id="elem_Job"><rect codeLine="137" fill="#F1F1F1" height="210.9688" id="Job" rx="2.5" ry="2.5" style="stroke:#181818;stroke-width:0.5;" width="239" x="1258.5" y="457"/><ellipse cx="1362.25" cy="473" fill="#ADD1B2" rx="11" ry="11" style="stroke:#181818;stroke-width:1.0;"/><path d="M1361.0469,473.875 L1362.5,473.875 L1362.5,473.9844 C1362.5,474.3906 1362.5313,474.5469 1362.6094,474.7031 C1362.7656,474.9531 1363.0469,475.1094 1363.3438,475.1094 C1363.5938,475.1094 1363.8594,474.9688 1364.0156,474.75 C1364.1406,474.5938 1364.1719,474.4375 1364.1719,473.9844 L1364.1719,472.0625 C1364.1719,471.9063 1364.1719,471.8594 1364.1563,471.7031 C1364.0938,471.2344 1363.7813,470.9219 1363.3281,470.9219 C1363.0781,470.9219 1362.8125,471.0625 1362.6406,471.2813 C1362.5313,471.4531 1362.5,471.6094 1362.5,472.0625 L1362.5,472.1875 L1361.0469,472.1875 L1361.0469,469.7813 L1365.0313,469.7813 L1365.0313,470.6406 C1365.0313,471.0469 1365.0625,471.2188 1365.1406,471.375 C1365.3125,471.625 1365.5938,471.7813 1365.875,471.7813 C1366.1406,471.7813 1366.4063,471.6406 1366.5781,471.4219 C1366.6875,471.25 1366.7188,471.1094 1366.7188,470.6406 L1366.7188,468.0938 L1359.0938,468.0938 C1358.6563,468.0938 1358.5313,468.1094 1358.375,468.2031 C1358.125,468.3594 1357.9688,468.6563 1357.9688,468.9375 C1357.9688,469.2188 1358.1094,469.4688 1358.3281,469.6406 C1358.4844,469.75 1358.6719,469.7813 1359.0938,469.7813 L1359.3438,469.7813 L1359.3438,476.2969 L1359.0938,476.2969 C1358.6875,476.2969 1358.5313,476.3125 1358.375,476.4219 C1358.125,476.5938 1357.9688,476.8594 1357.9688,477.1563 C1357.9688,477.4219 1358.1094,477.6719 1358.3281,477.8281 C1358.4688,477.9531 1358.7031,478 1359.0938,478 L1367.0938,478 L1367.0938,475.4219 C1367.0938,474.9844 1367.0625,474.8438 1366.9844,474.6875 C1366.8125,474.4375 1366.5313,474.2813 1366.25,474.2813 C1365.9844,474.2813 1365.7188,474.3906 1365.5469,474.6406 C1365.4375,474.7969 1365.4063,474.9375 1365.4063,475.4219 L1365.4063,476.2969 L1361.0469,476.2969 L1361.0469,473.875 Z " fill="#000000"/><text fill="#000000" font-family="sans-serif" font-size="14" lengthAdjust="spacing" textLength="23" x="1382.75" y="477.8467">Job</text><line style="stroke:#181818;stroke-width:0.5;" x1="1259.5" x2="1496.5" y1="489" y2="489"/><ellipse cx="1269.5" cy="502.6484" fill="#000000" rx="3" ry="3" style="stroke:#000000;stroke-width:1.0;"/><text fill="#000000" font-family="sans-serif" font-size="14" lengthAdjust="spacing" textLength="66" x="1278.5" y="505.9951">id: String</text><ellipse cx="1269.5" cy="518.9453" fill="#000000" rx="3" ry="3" style="stroke:#000000;stroke-width:1.0;"/><text fill="#000000" font-family="sans-serif" font-size="14" lengthAdjust="spacing" textLength="84" x="1278.5" y="522.292">title: String</text><text fill="#000000" font-family="sans-serif" font-size="14" lengthAdjust="spacing" textLength="142" x="1278.5" y="538.5889">description: String?</text><ellipse cx="1269.5" cy="551.5391" fill="#000000" rx="3" ry="3" style="stroke:#000000;stroke-width:1.0;"/><text fill="#000000" font-family="sans-serif" font-size="14" lengthAdjust="spacing" textLength="78" x="1278.5" y="554.8857">status: JOB</text><ellipse cx="1269.5" cy="567.8359" fill="#000000" rx="3" ry="3" style="stroke:#000000;stroke-width:1.0;"/><text fill="#000000" font-family="sans-serif" font-size="14" lengthAdjust="spacing" textLength="84" x="1278.5" y="571.1826">owner: User</text><ellipse cx="1269.5" cy="584.1328" fill="#000000" rx="3" ry="3" style="stroke:#000000;stroke-width:1.0;"/><text fill="#000000" font-family="sans-serif" font-size="14" lengthAdjust="spacing" textLength="110" x="1278.5" y="587.4795">ownerId: String</text><ellipse cx="1269.5" cy="600.4297" fill="#000000" rx="3" ry="3" style="stroke:#000000;stroke-width:1.0;"/><text fill="#000000" font-family="sans-serif" font-size="14" lengthAdjust="spacing" textLength="213" x="1278.5" y="603.7764">applications: JobApplication[]</text><text fill="#000000" font-family="sans-serif" font-size="14" lengthAdjust="spacing" textLength="97" x="1278.5" y="620.0732">budget: Json?</text><ellipse cx="1269.5" cy="633.0234" fill="#000000" rx="3" ry="3" style="stroke:#000000;stroke-width:1.0;"/><text fill="#000000" font-family="sans-serif" font-size="14" lengthAdjust="spacing" textLength="153" x="1278.5" y="636.3701">createdAt: DateTime</text><ellipse cx="1269.5" cy="649.3203" fill="#000000" rx="3" ry="3" style="stroke:#000000;stroke-width:1.0;"/><text fill="#000000" font-family="sans-serif" font-size="14" lengthAdjust="spacing" textLength="157" x="1278.5" y="652.667">updatedAt: DateTime</text><line style="stroke:#181818;stroke-width:0.5;" x1="1259.5" x2="1496.5" y1="659.9688" y2="659.9688"/></g><!--MD5=[7f68eca40512587b497d753121162fda]
class JobApplication--><g id="elem_JobApplication"><rect codeLine="150" fill="#F1F1F1" height="178.375" id="JobApplication" rx="2.5" ry="2.5" style="stroke:#181818;stroke-width:0.5;" width="183" x="358.5" y="777"/><ellipse cx="393.75" cy="793" fill="#ADD1B2" rx="11" ry="11" style="stroke:#181818;stroke-width:1.0;"/><path d="M392.5469,793.875 L394,793.875 L394,793.9844 C394,794.3906 394.0313,794.5469 394.1094,794.7031 C394.2656,794.9531 394.5469,795.1094 394.8438,795.1094 C395.0938,795.1094 395.3594,794.9688 395.5156,794.75 C395.6406,794.5938 395.6719,794.4375 395.6719,793.9844 L395.6719,792.0625 C395.6719,791.9063 395.6719,791.8594 395.6563,791.7031 C395.5938,791.2344 395.2813,790.9219 394.8281,790.9219 C394.5781,790.9219 394.3125,791.0625 394.1406,791.2813 C394.0313,791.4531 394,791.6094 394,792.0625 L394,792.1875 L392.5469,792.1875 L392.5469,789.7813 L396.5313,789.7813 L396.5313,790.6406 C396.5313,791.0469 396.5625,791.2188 396.6406,791.375 C396.8125,791.625 397.0938,791.7813 397.375,791.7813 C397.6406,791.7813 397.9063,791.6406 398.0781,791.4219 C398.1875,791.25 398.2188,791.1094 398.2188,790.6406 L398.2188,788.0938 L390.5938,788.0938 C390.1563,788.0938 390.0313,788.1094 389.875,788.2031 C389.625,788.3594 389.4688,788.6563 389.4688,788.9375 C389.4688,789.2188 389.6094,789.4688 389.8281,789.6406 C389.9844,789.75 390.1719,789.7813 390.5938,789.7813 L390.8438,789.7813 L390.8438,796.2969 L390.5938,796.2969 C390.1875,796.2969 390.0313,796.3125 389.875,796.4219 C389.625,796.5938 389.4688,796.8594 389.4688,797.1563 C389.4688,797.4219 389.6094,797.6719 389.8281,797.8281 C389.9688,797.9531 390.2031,798 390.5938,798 L398.5938,798 L398.5938,795.4219 C398.5938,794.9844 398.5625,794.8438 398.4844,794.6875 C398.3125,794.4375 398.0313,794.2813 397.75,794.2813 C397.4844,794.2813 397.2188,794.3906 397.0469,794.6406 C396.9375,794.7969 396.9063,794.9375 396.9063,795.4219 L396.9063,796.2969 L392.5469,796.2969 L392.5469,793.875 Z " fill="#000000"/><text fill="#000000" font-family="sans-serif" font-size="14" lengthAdjust="spacing" textLength="106" x="412.25" y="797.8467">JobApplication</text><line style="stroke:#181818;stroke-width:0.5;" x1="359.5" x2="540.5" y1="809" y2="809"/><ellipse cx="369.5" cy="822.6484" fill="#000000" rx="3" ry="3" style="stroke:#000000;stroke-width:1.0;"/><text fill="#000000" font-family="sans-serif" font-size="14" lengthAdjust="spacing" textLength="66" x="378.5" y="825.9951">id: String</text><text fill="#000000" font-family="sans-serif" font-size="14" lengthAdjust="spacing" textLength="62" x="378.5" y="842.292">job: Job?</text><text fill="#000000" font-family="sans-serif" font-size="14" lengthAdjust="spacing" textLength="96" x="378.5" y="858.5889">jobId: String?</text><text fill="#000000" font-family="sans-serif" font-size="14" lengthAdjust="spacing" textLength="100" x="378.5" y="874.8857">cover: String?</text><text fill="#000000" font-family="sans-serif" font-size="14" lengthAdjust="spacing" textLength="96" x="378.5" y="891.1826">artist: Artist?</text><text fill="#000000" font-family="sans-serif" font-size="14" lengthAdjust="spacing" textLength="112" x="378.5" y="907.4795">artistId: String?</text><ellipse cx="369.5" cy="920.4297" fill="#000000" rx="3" ry="3" style="stroke:#000000;stroke-width:1.0;"/><text fill="#000000" font-family="sans-serif" font-size="14" lengthAdjust="spacing" textLength="153" x="378.5" y="923.7764">createdAt: DateTime</text><ellipse cx="369.5" cy="936.7266" fill="#000000" rx="3" ry="3" style="stroke:#000000;stroke-width:1.0;"/><text fill="#000000" font-family="sans-serif" font-size="14" lengthAdjust="spacing" textLength="157" x="378.5" y="940.0732">updatedAt: DateTime</text><line style="stroke:#181818;stroke-width:0.5;" x1="359.5" x2="540.5" y1="947.375" y2="947.375"/></g><!--MD5=[a7a5fc88b482d9133da3b7741f458c08]
link User to ROLE--><g id="link_User_ROLE"><path codeLine="161" d="M474.251,121 C474.251,121 30.3333,121 30.3333,121 C30.3333,121 30.3333,506.989 30.3333,506.989 " fill="none" id="User-ROLE" style="stroke:#181818;stroke-width:1.0;stroke-dasharray:7.0,7.0;"/><line style="stroke:#181818;stroke-width:1.0;" x1="477.251" x2="477.251" y1="117" y2="125"/><line style="stroke:#181818;stroke-width:1.0;" x1="474.251" x2="474.251" y1="117" y2="125"/><line style="stroke:#181818;stroke-width:1.0;" x1="473.251" x2="481.251" y1="121" y2="121"/><line style="stroke:#181818;stroke-width:1.0;" x1="34.3333" x2="26.3333" y1="509.989" y2="509.989"/><line style="stroke:#181818;stroke-width:1.0;" x1="34.3333" x2="26.3333" y1="506.989" y2="506.989"/><line style="stroke:#181818;stroke-width:1.0;" x1="30.3333" x2="30.3333" y1="505.989" y2="513.989"/></g><!--MD5=[a7a5fc88b482d9133da3b7741f458c08]
link User to ROLE--><g id="link_User_ROLE"><path codeLine="169" d="M474.349,235 C474.349,235 53.6667,235 53.6667,235 C53.6667,235 53.6667,506.824 53.6667,506.824 " fill="none" id="User-ROLE-1" style="stroke:#181818;stroke-width:1.0;stroke-dasharray:7.0,7.0;"/><line style="stroke:#181818;stroke-width:1.0;" x1="477.349" x2="477.349" y1="231" y2="239"/><line style="stroke:#181818;stroke-width:1.0;" x1="474.349" x2="474.349" y1="231" y2="239"/><line style="stroke:#181818;stroke-width:1.0;" x1="473.349" x2="481.349" y1="235" y2="235"/><line style="stroke:#181818;stroke-width:1.0;" x1="57.6667" x2="49.6667" y1="509.824" y2="509.824"/><line style="stroke:#181818;stroke-width:1.0;" x1="57.6667" x2="49.6667" y1="506.824" y2="506.824"/><line style="stroke:#181818;stroke-width:1.0;" x1="53.6667" x2="53.6667" y1="505.824" y2="513.824"/></g><!--MD5=[5e3e488b34a8e2da8ffe5939cdf7e628]
link User to Contact--><g id="link_User_Contact"><path codeLine="162" d="M510.833,356.059 C510.833,356.059 510.833,453 510.833,453 C510.833,453 303.645,453 303.645,453 " fill="none" id="User-Contact" style="stroke:#181818;stroke-width:1.0;stroke-dasharray:7.0,7.0;"/><line style="stroke:#181818;stroke-width:1.0;" x1="510.833" x2="510.833" y1="359.059" y2="348.059"/><ellipse cx="510.833" cy="359.059" fill="none" rx="4" ry="4" style="stroke:#181818;stroke-width:1.0;"/><line style="stroke:#181818;stroke-width:1.0;" x1="506.833" x2="514.833" y1="352.059" y2="352.059"/><line style="stroke:#181818;stroke-width:1.0;" x1="303.645" x2="295.645" y1="453" y2="459"/><line style="stroke:#181818;stroke-width:1.0;" x1="303.645" x2="295.645" y1="453" y2="447"/><line style="stroke:#181818;stroke-width:1.0;" x1="303.645" x2="295.645" y1="453" y2="453"/><line style="stroke:#181818;stroke-width:1.0;" x1="305.645" x2="305.645" y1="457" y2="449"/></g><!--MD5=[453f27a0b3c007b3afad4f4fd07de980]
link User to Artist--><g id="link_User_Artist"><path codeLine="163" d="M540.167,356.048 C540.167,356.048 540.167,473.349 540.167,473.349 " fill="none" id="User-Artist" style="stroke:#181818;stroke-width:1.0;stroke-dasharray:7.0,7.0;"/><line style="stroke:#181818;stroke-width:1.0;" x1="536.167" x2="544.167" y1="352.048" y2="352.048"/><line style="stroke:#181818;stroke-width:1.0;" x1="536.167" x2="544.167" y1="355.048" y2="355.048"/><line style="stroke:#181818;stroke-width:1.0;" x1="540.167" x2="540.167" y1="356.048" y2="348.048"/><line style="stroke:#181818;stroke-width:1.0;" x1="540.167" x2="540.167" y1="470.349" y2="481.349"/><ellipse cx="540.167" cy="470.349" fill="none" rx="4" ry="4" style="stroke:#181818;stroke-width:1.0;"/><line style="stroke:#181818;stroke-width:1.0;" x1="544.167" x2="536.167" y1="477.349" y2="477.349"/></g><!--MD5=[75dd07d0d5894ce7c1ac687c1498af32]
link User to Work--><g id="link_User_Work"><path codeLine="164" d="M634.5,356.048 C634.5,356.048 634.5,399.87 634.5,399.87 " fill="none" id="User-Work" style="stroke:#181818;stroke-width:1.0;stroke-dasharray:7.0,7.0;"/><line style="stroke:#181818;stroke-width:1.0;" x1="634.5" x2="628.5" y1="356.048" y2="348.048"/><line style="stroke:#181818;stroke-width:1.0;" x1="634.5" x2="640.5" y1="356.048" y2="348.048"/><line style="stroke:#181818;stroke-width:1.0;" x1="634.5" x2="634.5" y1="356.048" y2="348.048"/><line style="stroke:#181818;stroke-width:1.0;" x1="630.5" x2="638.5" y1="358.048" y2="358.048"/><line style="stroke:#181818;stroke-width:1.0;" x1="634.5" x2="640.5" y1="399.87" y2="407.87"/><line style="stroke:#181818;stroke-width:1.0;" x1="634.5" x2="628.5" y1="399.87" y2="407.87"/><line style="stroke:#181818;stroke-width:1.0;" x1="634.5" x2="634.5" y1="399.87" y2="407.87"/><line style="stroke:#181818;stroke-width:1.0;" x1="638.5" x2="630.5" y1="397.87" y2="397.87"/></g><!--MD5=[34c59c9d46ffc7e558f1aeddc87476ed]
link User to Bidding--><g id="link_User_Bidding"><path codeLine="165" d="M672.83,263 C672.83,263 914,263 914,263 C914,263 914,456.847 914,456.847 " fill="none" id="User-Bidding" style="stroke:#181818;stroke-width:1.0;stroke-dasharray:7.0,7.0;"/><line style="stroke:#181818;stroke-width:1.0;" x1="675.83" x2="664.83" y1="263" y2="263"/><ellipse cx="675.83" cy="263" fill="none" rx="4" ry="4" style="stroke:#181818;stroke-width:1.0;"/><line style="stroke:#181818;stroke-width:1.0;" x1="668.83" x2="668.83" y1="267" y2="259"/><line style="stroke:#181818;stroke-width:1.0;" x1="914" x2="920" y1="456.847" y2="464.847"/><line style="stroke:#181818;stroke-width:1.0;" x1="914" x2="908" y1="456.847" y2="464.847"/><line style="stroke:#181818;stroke-width:1.0;" x1="914" x2="914" y1="456.847" y2="464.847"/><line style="stroke:#181818;stroke-width:1.0;" x1="918" x2="910" y1="454.847" y2="454.847"/></g><!--MD5=[5b2a2bdb39cc116e4a78ea074bb38160]
link User to Order--><g id="link_User_Order"><path codeLine="166" d="M672.682,178 C672.682,178 1132,178 1132,178 C1132,178 1132,440.958 1132,440.958 " fill="none" id="User-Order" style="stroke:#181818;stroke-width:1.0;stroke-dasharray:7.0,7.0;"/><line style="stroke:#181818;stroke-width:1.0;" x1="675.682" x2="664.682" y1="178" y2="178"/><ellipse cx="675.682" cy="178" fill="none" rx="4" ry="4" style="stroke:#181818;stroke-width:1.0;"/><line style="stroke:#181818;stroke-width:1.0;" x1="668.682" x2="668.682" y1="182" y2="174"/><line style="stroke:#181818;stroke-width:1.0;" x1="1132" x2="1138" y1="440.958" y2="448.958"/><line style="stroke:#181818;stroke-width:1.0;" x1="1132" x2="1126" y1="440.958" y2="448.958"/><line style="stroke:#181818;stroke-width:1.0;" x1="1132" x2="1132" y1="440.958" y2="448.958"/><line style="stroke:#181818;stroke-width:1.0;" x1="1136" x2="1128" y1="438.958" y2="438.958"/></g><!--MD5=[18ec5c9f1348f978072b96d5f00cf6e9]
link User to Job--><g id="link_User_Job"><path codeLine="167" d="M672.56,93 C672.56,93 1378,93 1378,93 C1378,93 1378,448.842 1378,448.842 " fill="none" id="User-Job" style="stroke:#181818;stroke-width:1.0;stroke-dasharray:7.0,7.0;"/><line style="stroke:#181818;stroke-width:1.0;" x1="668.56" x2="668.56" y1="97" y2="89"/><line style="stroke:#181818;stroke-width:1.0;" x1="671.56" x2="671.56" y1="97" y2="89"/><line style="stroke:#181818;stroke-width:1.0;" x1="672.56" x2="664.56" y1="93" y2="93"/><line style="stroke:#181818;stroke-width:1.0;" x1="1378" x2="1384" y1="448.842" y2="456.842"/><line style="stroke:#181818;stroke-width:1.0;" x1="1378" x2="1372" y1="448.842" y2="456.842"/><line style="stroke:#181818;stroke-width:1.0;" x1="1378" x2="1378" y1="448.842" y2="456.842"/><line style="stroke:#181818;stroke-width:1.0;" x1="1382" x2="1374" y1="446.842" y2="446.842"/></g><!--MD5=[7f035bace2eeaea8abe67c372e76bad6]
link Artist to JobApplication--><g id="link_Artist_JobApplication"><path codeLine="168" d="M450,651.832 C450,651.832 450,768.972 450,768.972 " fill="none" id="Artist-JobApplication" style="stroke:#181818;stroke-width:1.0;stroke-dasharray:7.0,7.0;"/><line style="stroke:#181818;stroke-width:1.0;" x1="450" x2="450" y1="654.832" y2="643.832"/><ellipse cx="450" cy="654.832" fill="none" rx="4" ry="4" style="stroke:#181818;stroke-width:1.0;"/><line style="stroke:#181818;stroke-width:1.0;" x1="446" x2="454" y1="647.832" y2="647.832"/><line style="stroke:#181818;stroke-width:1.0;" x1="450" x2="456" y1="768.972" y2="776.972"/><line style="stroke:#181818;stroke-width:1.0;" x1="450" x2="444" y1="768.972" y2="776.972"/><line style="stroke:#181818;stroke-width:1.0;" x1="450" x2="450" y1="768.972" y2="776.972"/><line style="stroke:#181818;stroke-width:1.0;" x1="454" x2="446" y1="766.972" y2="766.972"/></g><!--MD5=[ef06da5c7b8d60ba26a618a359e3d78c]
link Work to SELLAS--><g id="link_Work_SELLAS"><path codeLine="170" d="M696,725.362 C696,725.362 696,817.463 696,817.463 " fill="none" id="Work-SELLAS" style="stroke:#181818;stroke-width:1.0;stroke-dasharray:7.0,7.0;"/><line style="stroke:#181818;stroke-width:1.0;" x1="692" x2="700" y1="721.362" y2="721.362"/><line style="stroke:#181818;stroke-width:1.0;" x1="692" x2="700" y1="724.362" y2="724.362"/><line style="stroke:#181818;stroke-width:1.0;" x1="696" x2="696" y1="725.362" y2="717.362"/><line style="stroke:#181818;stroke-width:1.0;" x1="696" x2="702" y1="817.463" y2="825.463"/><line style="stroke:#181818;stroke-width:1.0;" x1="696" x2="690" y1="817.463" y2="825.463"/><line style="stroke:#181818;stroke-width:1.0;" x1="696" x2="696" y1="817.463" y2="825.463"/><line style="stroke:#181818;stroke-width:1.0;" x1="700" x2="692" y1="815.463" y2="815.463"/></g><!--MD5=[6a1e4581409dfa1e557da51360ad16f5]
link Bidding to BIDDING--><g id="link_Bidding_BIDDING"><path codeLine="171" d="M914,668.2 C914,668.2 914,809.366 914,809.366 " fill="none" id="Bidding-BIDDING" style="stroke:#181818;stroke-width:1.0;stroke-dasharray:7.0,7.0;"/><line style="stroke:#181818;stroke-width:1.0;" x1="910" x2="918" y1="664.2" y2="664.2"/><line style="stroke:#181818;stroke-width:1.0;" x1="910" x2="918" y1="667.2" y2="667.2"/><line style="stroke:#181818;stroke-width:1.0;" x1="914" x2="914" y1="668.2" y2="660.2"/><line style="stroke:#181818;stroke-width:1.0;" x1="914" x2="914" y1="806.366" y2="817.366"/><ellipse cx="914" cy="806.366" fill="none" rx="4" ry="4" style="stroke:#181818;stroke-width:1.0;"/><line style="stroke:#181818;stroke-width:1.0;" x1="918" x2="910" y1="813.366" y2="813.366"/></g><!--MD5=[481a17dad732e67366a103e297ed2cac]
link Order to ORDER--><g id="link_Order_ORDER"><path codeLine="172" d="M1132,683.376 C1132,683.376 1132,777.646 1132,777.646 " fill="none" id="Order-ORDER" style="stroke:#181818;stroke-width:1.0;stroke-dasharray:7.0,7.0;"/><line style="stroke:#181818;stroke-width:1.0;" x1="1128" x2="1136" y1="680.376" y2="680.376"/><line style="stroke:#181818;stroke-width:1.0;" x1="1128" x2="1136" y1="683.376" y2="683.376"/><line style="stroke:#181818;stroke-width:1.0;" x1="1132" x2="1132" y1="684.376" y2="676.376"/><line style="stroke:#181818;stroke-width:1.0;" x1="1136" x2="1128" y1="780.646" y2="780.646"/><line style="stroke:#181818;stroke-width:1.0;" x1="1136" x2="1128" y1="777.646" y2="777.646"/><line style="stroke:#181818;stroke-width:1.0;" x1="1132" x2="1132" y1="776.646" y2="784.646"/></g><!--MD5=[a9529e2e014c1ce72f546b98dd19e3c8]
link Job to JOB--><g id="link_Job_JOB"><path codeLine="173" d="M1378,675.224 C1378,675.224 1378,802.201 1378,802.201 " fill="none" id="Job-JOB" style="stroke:#181818;stroke-width:1.0;stroke-dasharray:7.0,7.0;"/><line style="stroke:#181818;stroke-width:1.0;" x1="1374" x2="1382" y1="672.224" y2="672.224"/><line style="stroke:#181818;stroke-width:1.0;" x1="1374" x2="1382" y1="675.224" y2="675.224"/><line style="stroke:#181818;stroke-width:1.0;" x1="1378" x2="1378" y1="676.224" y2="668.224"/><line style="stroke:#181818;stroke-width:1.0;" x1="1382" x2="1374" y1="805.201" y2="805.201"/><line style="stroke:#181818;stroke-width:1.0;" x1="1382" x2="1374" y1="802.201" y2="802.201"/><line style="stroke:#181818;stroke-width:1.0;" x1="1378" x2="1378" y1="801.201" y2="809.201"/></g><!--MD5=[eed38020f2e720116658d785f744ab53]
link Contact to CONTACT--><g id="link_Contact_CONTACT"><path codeLine="174" d="M204,708.928 C204,708.928 204,801.396 204,801.396 " fill="none" id="Contact-CONTACT" style="stroke:#181818;stroke-width:1.0;stroke-dasharray:7.0,7.0;"/><line style="stroke:#181818;stroke-width:1.0;" x1="200" x2="208" y1="704.928" y2="704.928"/><line style="stroke:#181818;stroke-width:1.0;" x1="200" x2="208" y1="707.928" y2="707.928"/><line style="stroke:#181818;stroke-width:1.0;" x1="204" x2="204" y1="708.928" y2="700.928"/><line style="stroke:#181818;stroke-width:1.0;" x1="204" x2="204" y1="798.396" y2="809.396"/><ellipse cx="204" cy="798.396" fill="none" rx="4" ry="4" style="stroke:#181818;stroke-width:1.0;"/><line style="stroke:#181818;stroke-width:1.0;" x1="208" x2="200" y1="805.396" y2="805.396"/></g><!--MD5=[17d4734dd0b2e29e9036fa0481d0678a]
@startuml
skinparam linetype ortho

enum ROLE {
  user
  artist
  admin
}

enum SELLAS {
  best_offer
  buy_now
}

enum BIDDING {
  pending
  accepted
  declined
}

enum ORDER {
  pending
  accepted
  declined
  paid
  pending_delivery
  delivered
  cancelled
}

enum JOB {
  open
  locked
  taken
  closed
}

enum CONTACT {
  default
  residential
  office
  art_studio
}

entity User {
  * id: String
  * email: String
  * password: String
  * role: ROLE
  * first_name: String
  * last_name: String
  other_name: String?
  avatar: String?
  display_name: String?
  artist: Artist?
  * works: Work[]
  * jobs: Job[]
  * orders: Order[]
  * wishlist: Work[]
  * biddings: Bidding[]
  * contacts: Contact[]
  * createdAt: DateTime
  * updatedAt: DateTime
}

entity Contact {
  * id: String
  type: CONTACT?
  * phone: String
  email: String?
  * address: String
  * city: String
  * state: String
  * country: String
  * zipcode: String
  position: String?
  owner: User?
  ownerId: String?
  * createdAt: DateTime
  * updatedAt: DateTime
}

entity Artist {
  * id: String
  * user: User
  * userId: String
  * works: Work[]
  * applications: JobApplication[]
  * createdAt: DateTime
  * updatedAt: DateTime
}

entity Work {
  * id: String
  * title: String
  description: String?
  artist: Artist?
  artistId: String?
  * views: User[]
  * biddings: Bidding[]
  * orders: Order[]
  price: Decimal?
  currency: String?
  * sellAs: SELLAS[]
  isSold: Boolean?
  files: Json?
  * watchedBy: User[]
  * createdAt: DateTime
  * updatedAt: DateTime
}

entity Bidding {
  * id: String
  * work: Work
  * workId: String
  user: User?
  userId: String?
  * offer: Decimal
  status: BIDDING?
  * createdAt: DateTime
  * updatedAt: DateTime
}

entity Order {
  * id: String
  description: String?
  user: User?
  userId: String?
  * status: ORDER
  * work: Work
  * workId: String
  price: Decimal?
  currency: String?
  * createdAt: DateTime
  * updatedAt: DateTime
}

entity Job {
  * id: String
  * title: String
  description: String?
  * status: JOB
  * owner: User
  * ownerId: String
  * applications: JobApplication[]
  budget: Json?
  * createdAt: DateTime
  * updatedAt: DateTime
}

entity JobApplication {
  * id: String
  job: Job?
  jobId: String?
  cover: String?
  artist: Artist?
  artistId: String?
  * createdAt: DateTime
  * updatedAt: DateTime
}

User ||..|| ROLE
User |o..|{ Contact
User ||..o| Artist
User }|..|{ Work
User |o..|{ Bidding
User |o..|{ Order
User ||..|{ Job
Artist |o..|{ JobApplication
User ||..|| ROLE
Work ||..|{ SELLAS
Bidding ||..o| BIDDING
Order ||..|| ORDER
Job ||..|| JOB
Contact ||..o| CONTACT
@enduml

PlantUML version 1.2022.14beta4(Unknown compile time)
(GPL source distribution)
Java Runtime: Java(TM) SE Runtime Environment
JVM: Java HotSpot(TM) 64-Bit Server VM
Default Encoding: UTF-8
Language: en
Country: US
--></g></svg>